<svg width="256" height="256" viewBox="0 0 256 256" fill="none" xmlns="http://www.w3.org/2000/svg">
<path fill-rule="evenodd" clip-rule="evenodd" d="M85.2831 56.1768C69.037 57.8095 55.2685 62.9698 43.2328 71.937C40.0333 74.3208 33.4043 80.7864 30.9245 83.942C18.7546 99.4282 13.8197 118.938 16.8875 139.434C18.1597 147.934 21.3574 156.977 25.6498 164.214C31.9433 174.825 41.2819 183.775 52.5314 189.977C68.1948 198.612 88.0153 201.909 106.31 198.922C113.966 197.672 120.93 195.595 127.638 192.56C139.984 186.975 151.02 177.65 158.005 166.9C159.819 164.109 163.035 157.871 162.779 157.641C162.412 157.313 152.242 153.959 148.275 152.858C139.769 150.498 133.677 149.649 126.612 149.842C119.383 150.039 114.804 151.142 107.496 154.447C101.436 157.188 97.987 158.001 92.4007 158.006C88.2928 158.01 85.8706 157.622 82.2105 156.374C71.6855 152.786 63.7822 143.746 61.8017 133.029C61.3202 130.424 61.3796 125.024 61.9192 122.369C63.878 112.727 70.2247 104.864 79.454 100.643C84.178 98.483 88.8616 97.6196 94.4163 97.8852C102.653 98.2791 109.381 101.244 114.891 106.908C117.924 110.025 119.395 112.383 122.963 119.85C127.988 130.363 137.875 138.338 154.234 145.076C159.73 147.339 165.788 149.598 165.948 149.444C166.274 149.128 167.79 142.494 168.321 139.064C169.032 134.457 169.29 125.662 168.848 121.021C167.459 106.416 162.19 93.5087 153.134 82.5297C150.94 79.8703 145.403 74.5218 142.588 72.3429C131.692 63.9106 119.222 58.784 104.374 56.6328C100.478 56.0682 89.0744 55.796 85.2831 56.1768ZM206.022 139.834C198.445 140.765 192.555 143.406 187.453 148.158C179.084 155.954 175.906 167.022 178.914 177.899C181.117 185.871 187.16 192.99 194.943 196.785C198.955 198.74 202.936 199.743 207.55 199.96C221.415 200.611 233.971 192.33 238.515 179.536C239.706 176.184 240.021 174.074 239.999 169.61C239.98 165.744 239.916 165.195 239.178 162.466C238.237 158.983 236.034 154.475 234.027 151.921C229.263 145.86 222.398 141.69 214.891 140.297C212.745 139.899 207.655 139.633 206.022 139.834Z" fill="#00ECBF"/>
</svg>
