<svg width="728" height="231" viewBox="0 0 728 231" fill="none" xmlns="http://www.w3.org/2000/svg">
<path fill-rule="evenodd" clip-rule="evenodd" d="M348.211 65.4756L348.176 130.928L346.159 125.255C336.737 98.8031 316.181 81.2903 288.644 76.2546C278.903 74.4738 261.237 75.146 251.944 77.658C237.922 81.4436 226.034 88.2836 216.305 98.1663C203.722 110.938 196.74 125.986 194.806 144.466C194.087 151.377 193.78 152.533 192.789 152.238C190.655 151.589 158.896 144.761 158 144.761C157.516 144.761 156.726 146.282 156.254 148.134C155.783 149.985 153.801 154.703 151.855 158.618C145.864 170.635 136.748 178.879 124.802 183.124C105.614 189.929 83.6909 185.672 68.9259 172.274C62.5104 166.449 59.4324 162.522 55.8237 155.528C47.6746 139.737 47.3562 117.908 55.0571 101.716C62.9939 85.0405 77.0868 74.2026 95.5902 70.5703C102.772 69.1551 113.575 69.4971 120.792 71.3604C136.819 75.488 149.851 87.9888 155.157 104.322C155.853 106.469 156.667 108.485 156.962 108.804C157.516 109.417 203.568 98.1899 204.712 97.1638C205.809 96.1968 202.472 86.1844 198.226 77.6815C189.263 59.7324 174.156 44.9909 155.252 35.7451C148.376 32.384 134.708 28.0205 126.276 26.511C116.57 24.7656 94.8237 24.7656 85.8609 26.511C39.8911 35.4502 6.62262 69.8273 0.584525 114.606C-0.63017 123.604 0.136385 141.884 2.07046 150.08C12.0003 192.24 44.3018 222.053 87.9129 229.318C99.1635 231.193 119 230.851 129.743 228.587C159.533 222.336 182.022 206.652 195.785 182.511L198.309 178.089L199.24 181.108C201.788 189.375 208.356 199.611 216.281 207.654C226.176 217.702 238.453 224.695 252.427 228.233C262.204 230.71 278.396 231.299 289.092 229.566C307.277 226.617 320.851 219.848 332.232 208.055C337.079 203.031 345.322 191.12 345.322 189.115C345.322 188.679 336.171 186.497 324.024 184.068L302.725 179.787L299.86 182.806C293.208 189.823 285.767 192.641 274.103 192.582C265.011 192.535 261.838 191.674 255.612 187.535C249.892 183.726 243.854 174.704 242.049 167.274L241.578 165.328H348.046L348.424 177.923C348.719 187.971 349.12 191.592 350.393 195.825C352.716 203.597 356.703 210.425 362.21 216.063C367.871 221.853 374.027 225.627 382.188 228.292C387.671 230.085 388.827 230.202 400.809 230.167C412.178 230.144 414.347 229.931 420.527 228.316C424.348 227.313 430.669 225.155 434.596 223.516L441.731 220.532L445.187 222.69C454.951 228.776 464.421 230.957 478.526 230.391C489.576 229.943 494.187 228.87 503.622 224.554C509.719 221.759 510.356 221.287 510.002 219.825C509.79 218.928 508.999 215.237 508.245 211.64L506.888 205.083L511.535 209.305C539.603 234.814 585.95 237.844 618.617 216.298C628.275 209.93 638.382 198.797 642.864 189.575C645.411 184.327 645.753 184.74 636.318 181.685C614.654 174.692 601.104 174.444 586.551 180.789C576.209 185.294 569.345 186.202 561.125 184.115C544.627 179.94 533.741 163.842 536.595 147.863C539.921 129.253 557.811 117.531 576.94 121.422C587.011 123.474 594.83 130.232 600.809 142.084C608.31 156.955 617.485 164.314 639.396 173.041L648.324 176.603L649.09 173.843C651.921 163.607 652.499 145.893 650.305 136.435C643.406 106.728 622.013 85.3117 591.516 77.5754C577.199 73.9431 556.384 74.6153 541.997 79.1793C517.455 86.9628 498.574 104.841 490.968 127.519C484.812 145.846 485.826 166.189 493.904 186.025C494.293 186.992 493.633 187.358 490.178 188.054C482.135 189.681 475.436 187.323 472.665 181.886C471.32 179.256 471.261 176.06 471.073 89.5808L470.872 0H423.428V185.837L419.595 186.969C413.84 188.655 409.218 189.033 405.739 188.077C402.012 187.051 399.972 185.542 397.931 182.287C396.422 179.881 396.422 179.704 396.41 89.9346V0.0235863H348.211L348.176 65.4756H348.211ZM286.356 115.844C292.1 118.427 297.89 123.911 300.685 129.442C304.482 136.93 307.242 136.258 272.664 136.258C256.001 136.258 242.356 136.069 242.356 135.834C242.356 135.598 243.323 133.44 244.502 131.046C248.158 123.604 254.987 117.884 263.89 114.795C269.575 112.825 280.79 113.356 286.356 115.856V115.844ZM686.687 166.331C680.885 167.699 676.321 170.187 671.438 174.621C666.356 179.244 663.561 183.714 661.91 189.846C659.516 198.762 661.155 208.114 666.521 216.18C670 221.405 674.269 224.884 680.897 227.903C685.083 229.802 687.064 230.25 692.348 230.497C695.956 230.662 700.237 230.427 702.183 229.955C713.894 227.089 722.644 219.176 726.536 207.913C727.88 204.045 728.081 202.194 727.798 196.38C727.491 190.165 727.185 188.915 724.732 184.091C717.526 169.928 702.042 162.698 686.675 166.319L686.687 166.331Z" fill="#140230"/>
</svg>
