<svg width="32" height="32" viewBox="0 0 32 32" fill="none" xmlns="http://www.w3.org/2000/svg">
<path fill-rule="evenodd" clip-rule="evenodd" d="M10.6604 7.0221C8.62962 7.22619 6.90856 7.87122 5.4041 8.99212C5.00416 9.2901 4.17554 10.0983 3.86556 10.4927C2.34433 12.4285 1.72746 14.8672 2.11094 17.4292C2.26996 18.4917 2.66968 19.6221 3.20623 20.5267C3.99291 21.8531 5.16024 22.9719 6.56643 23.7471C8.52435 24.8265 11.0019 25.2386 13.2887 24.8652C14.2457 24.709 15.1163 24.4494 15.9548 24.07C17.498 23.3719 18.8775 22.2062 19.7506 20.8625C19.9774 20.5136 20.3794 19.7339 20.3474 19.7051C20.3015 19.6641 19.0302 19.2449 18.5344 19.1072C17.4711 18.8122 16.7096 18.7061 15.8265 18.7302C14.9229 18.7549 14.3505 18.8927 13.437 19.3059C12.6795 19.6485 12.2484 19.7501 11.5501 19.7507C11.0366 19.7512 10.7338 19.7027 10.2763 19.5467C8.96069 19.0982 7.97278 17.9682 7.72521 16.6286C7.66503 16.303 7.67245 15.628 7.7399 15.2961C7.98475 14.0909 8.77809 13.108 9.93175 12.5804C10.5223 12.3104 11.1077 12.2024 11.802 12.2356C12.8316 12.2849 13.6726 12.6555 14.3614 13.3635C14.7405 13.7531 14.9244 14.0479 15.3704 14.9812C15.9985 16.2954 17.2344 17.2922 19.2792 18.1345C19.9662 18.4174 20.7235 18.6997 20.7435 18.6805C20.7842 18.641 20.9737 17.8117 21.0401 17.383C21.129 16.8071 21.1613 15.7077 21.106 15.1276C20.9324 13.302 20.2738 11.6886 19.1418 10.3162C18.8675 9.98379 18.1754 9.31522 17.8235 9.04286C16.4615 7.98882 14.9028 7.348 13.0468 7.0791C12.5598 7.00852 11.1343 6.9745 10.6604 7.0221ZM25.7528 17.4792C24.8056 17.5956 24.0694 17.9257 23.4316 18.5197C22.3855 19.4942 21.9883 20.8777 22.3643 22.2374C22.6396 23.2339 23.395 24.1237 24.3679 24.5981C24.8694 24.8425 25.367 24.9679 25.9438 24.995C27.6769 25.0764 29.2464 24.0412 29.8144 22.442C29.9632 22.023 30.0026 21.7592 29.9999 21.2012C29.9975 20.718 29.9895 20.6494 29.8972 20.3082C29.7796 19.8729 29.5042 19.3094 29.2534 18.9901C28.6579 18.2325 27.7998 17.7112 26.8614 17.5371C26.5931 17.4874 25.9569 17.4541 25.7528 17.4792Z" fill="#00ECBF"/>
</svg>
