<?xml version="1.0" encoding="UTF-8"?>
<svg id="Layer_1" data-name="Layer 1" xmlns="http://www.w3.org/2000/svg" viewBox="0 0 1210 400">
  <defs>
    <style>
      .cls-1 {
        fill: #00bac6;
      }

      .cls-2 {
        fill: #494646;
      }
    </style>
  </defs>
  <polygon class="cls-1" points="983.22 20.54 1110.72 195.77 974.76 379.47 1065.4 379.47 1195.32 202.43 1195.32 202.42 1072.65 20.54 983.22 20.54"/>
  <path class="cls-2" d="M311.98,134.14c-24.78-22.96-64.05-39.28-105.14-39.28-62.24,0-99.7,41.69-99.7,105.14s41.09,108.16,99.7,108.16c9.67,0,24.78-1.21,30.82-3.02v-93.66h88.22v146.83c-28.4,18.74-79.76,27.19-121.46,27.19-116.02,0-189.74-69.49-189.74-185.51C14.68,90.63,90.22,14.49,200.8,14.49c44.71,0,82.18,9.07,111.18,27.19v92.45Z"/>
  <path class="cls-2" d="M367.46,20.54h90.03V379.47h-90.03V20.54Zm208.3,0h103.93l-115.42,174.03,123.27,184.9h-105.74l-115.42-177.65L575.76,20.54Z"/>
  <path class="cls-2" d="M939.58,133.54c-22.36-22.36-55.59-38.07-97.28-38.07-59.22,0-93.06,43.51-93.06,104.54s38.67,104.54,96.68,104.54c42.9,0,69.49-12.69,100.92-37.46v91.85c-35.05,21.15-68.29,26.58-105.14,26.58-113,0-184.91-76.74-184.91-185.51S730.51,14.5,841.69,14.5c36.86,0,68.88,6.04,97.89,22.96v96.08Z"/>
</svg>